<svg width="512" height="512" xmlns="http://www.w3.org/2000/svg"><path d="m483.93 219.77-39.424-8.578 26.619-30.991c-23.18-22.996-72.96-29.03-124.11-12.406a198.446 198.446 0 0 0-21.393 8.316 196.675 196.675 0 0 0 1.282-22.685c0-53.773-21.12-99.24-50.159-114.17l-21.257 34.897-20.343-34.838c-28.99 15-50.052 60.428-50.052 114.12 0 7.578.418 15.156 1.273 22.685a199.22 199.22 0 0 0-21.383-8.316c-51.15-16.613-100.91-10.59-124.11 12.416l26.59 30.99-39.395 8.57c5.295 32.195 41.998 66.265 93.1 82.87a199.294 199.294 0 0 0 21.83 5.75 201.54 201.54 0 0 0-14.253 17.488c-31.623 43.494-41.26 92.682-26.542 121.83l37.714-15.73-4.022 40.144c32.254 4.896 76.02-19.488 107.62-62.915a198.878 198.878 0 0 0 12.513-19.488 197.189 197.189 0 0 0 12.532 19.488c31.574 43.455 75.321 67.772 107.61 62.915l-4.032-40.143 37.675 15.738c14.71-29.145 5.091-78.342-26.55-121.85A199.8 199.8 0 0 0 369 308.4a199.698 199.698 0 0 0 21.85-5.761c51.071-16.593 87.775-50.664 93.07-82.86z" fill="#b00"/><path d="m371.94 311.33.237-.167-.099-.265 76.526-99.104-1.115-.853.375-1.344-120.57-34.272-1.014-1.18h-.277l-69.347-102.34-1.164.784-1.174-.784-69.63 103.33h-.267l-.088.245-120.18 34.236.355 1.343-1.105.854 76.417 97.74-3.119 124.27h1.382l.473 1.314 117.23-40.626.227.157.227-.157 117.23 40.626.454-1.314h1.411zm-60.046 39.743v-.059l-50.672 3.06 62.533-35.869 41.613-5.57zm-113.07-.932-52.132-37.488 40.261 5.532 62.356 35.771-50.484-3.884zm-34.538-104.4 17.644-4.13a6.181 6.181 0 0 0 4.075 3.189v70.444l-42.63-5.866zm155.69-68.409-64.471 21.074-.158-.098-.158.098-61.674-20.26zm-128.08 65.692 22.381 12.388-8.783 18.98-14.338-30.7c.263-.205.51-.428.74-.668zm63.431-4.09c.602 0 1.2-.089 1.776-.265l8.605 14.771h-20.713l8.615-14.77c.564.158 1.15.234 1.737.225zm11.98 17.282 12.404 21.382-12.404 21.382h-23.92l-12.434-21.382 12.434-21.382zm3.237 0h21.58l-10.775 18.538zm18.068 42.764h-18.068l10.786-18.577 9.029 15.536a6.024 6.024 0 0 0-1.747 2.972zm-22.894 2.786-10.342 17.822-10.322-17.822zm-43.616-2.786a6.103 6.103 0 0 0-1.777-3.04l9.03-15.537 10.796 18.577zm7.253-24.148-10.776-18.655h21.58zm-13.075-16.949 11.447 19.734-9.819 16.93a6.075 6.075 0 0 0-3.03-.138l-7.746-16.674zm-3.938 37.703c-5.59 4.348-.514 13.086 6.07 10.446l9.196 13.006-38.09-3.335 16.035-34.643zm8.368 8.837a6.147 6.147 0 0 0 1.392-2.658h19.667l11.319 19.43-21.838-1.912zm33.245 19.744v25.796a6.702 6.702 0 0 0-.858.265L233.4 322.362zm3.69 26.061a6.305 6.305 0 0 0-.858-.264V324.09l20.575-1.805zm0-28.954 11.339-19.519h19.667a5.972 5.972 0 0 0 1.372 2.59l-10.56 14.938zm34.687-15.242c6.583 2.64 11.66-6.098 6.069-10.446l6.789-14.536 16.035 34.633-38.09 3.276zm3.533-11.623a6.074 6.074 0 0 0-3.02.138l-9.829-16.93 11.457-19.733 9.148 19.774zm.562-38.959 22.381-12.388c.233.247.484.476.75.687l-14.387 30.592zm20.762-15.85c.04.344.099.677.197 1l-22.38 12.409-11.704-16.39zm-25.33 13.83h-22.924l-9.384-16.203a6.106 6.106 0 0 0 1.618-2.57l18.473 1.61zm-30.453-21.529c-.91-7.08-11.227-7.08-12.138 0l-16.124 1.452 22.203-31.073 22.163 30.994zm-11.842 2.806c.316.98.878 1.863 1.628 2.57l-9.394 16.163h-22.953l12.157-17.017zm-33.808 18.253-22.38-12.408c.077-.263.133-.532.167-.805l33.867-3.04zm-26.9-7.769 15.177 32.505-15.177 32.82zm40.903 76.77 20.841 29.504-56.987-32.662zm51.264 0 36.117-3.168-56.958 32.672zm25.716-44.304 15.197-32.495v65.284zm-25.558-44.039-20.969-29.327 56.494 32.436zm-51.708.07-35.86 3.236 56.86-32.613zm95.226 81.536V244.82a6.111 6.111 0 0 0 4.105-3.276l18.946 4.208 20.89 63.627zm4.727-76.417c-.02-5.514-6.82-8.157-10.598-4.12l-60.037-34.426 65.934-21.458 21.989 63.85zm-72.036-62.872-.494-98.77 65.716 96.96zm-2.793 0-66.56-.82 66.067-97.96zm-2.664 24.325-60.037 34.457c-3.79-4.075-10.641-1.4-10.628 4.149l-15.956 3.747 21.378-63.95zm-110.67 106.59-72.756-93.08 92.956 31.651zm1.263 6.248 54.066 38.88-56.997 77.506zm56.336 40.508 54.145 38.939-111.13 38.488zm57.135 36.041-52.922-36.453 46.212 3.59c1.024 6.86 10.95 6.941 12.088.098l46.379-2.805zm113.21-76.344 3.217 116.24-58.3-76.623zm-18.621-67.893 92.956-31.642-72.52 93.915zm92.206-34.329-93.074 31.652-20.821-63.382zm-280.46 31.652-93.065-31.642 113.88-31.71zm149.52 111.82 58.162 76.476-111.03-38.488z" fill="#fcfcfc"/></svg>